<?xml version="1.0" encoding="UTF-8" standalone="no"?>
<!-- Created with Inkscape (http://www.inkscape.org/) -->

<svg
   width="400"
   height="400"
   viewBox="0 0 105.83333 105.83333"
   version="1.1"
   id="svg1"
   inkscape:version="1.3.2 (1:1.3.2+202311252150+091e20ef0f)"
   sodipodi:docname="icon.svg"
   xmlns:inkscape="http://www.inkscape.org/namespaces/inkscape"
   xmlns:sodipodi="http://sodipodi.sourceforge.net/DTD/sodipodi-0.dtd"
   xmlns="http://www.w3.org/2000/svg"
   xmlns:svg="http://www.w3.org/2000/svg">
  <sodipodi:namedview
     id="namedview1"
     pagecolor="#ffffff"
     bordercolor="#000000"
     borderopacity="0.25"
     inkscape:showpageshadow="2"
     inkscape:pageopacity="0.0"
     inkscape:pagecheckerboard="0"
     inkscape:deskcolor="#d1d1d1"
     inkscape:document-units="mm"
     inkscape:zoom="2.2822422"
     inkscape:cx="140.43207"
     inkscape:cy="165.18843"
     inkscape:window-width="2490"
     inkscape:window-height="1376"
     inkscape:window-x="0"
     inkscape:window-y="0"
     inkscape:window-maximized="1"
     inkscape:current-layer="layer1" />
  <defs
     id="defs1" />
  <g
     inkscape:label="Layer 1"
     inkscape:groupmode="layer"
     id="layer1">
    <g
       id="g2"
       style="display:none"
       sodipodi:insensitive="true"
       transform="translate(-0.14034964,-2.0370563)">
      <text
         xml:space="preserve"
         style="font-style:normal;font-variant:normal;font-weight:normal;font-stretch:normal;font-size:98.224px;font-family:Ubuntu;-inkscape-font-specification:'Ubuntu, Normal';font-variant-ligatures:normal;font-variant-caps:normal;font-variant-numeric:normal;font-variant-east-asian:normal;letter-spacing:0px;word-spacing:0px;opacity:0.958926;fill:#000000;fill-opacity:1;stroke:none;stroke-width:0;stroke-linecap:round;stroke-linejoin:round;stroke-miterlimit:4.2;stroke-dasharray:none;stroke-opacity:0.3;paint-order:stroke fill markers"
         x="37.670101"
         y="102.37392"
         id="text2"
         transform="scale(0.99018165,1.0099157)"><tspan
           sodipodi:role="line"
           id="tspan2"
           style="stroke:none;stroke-width:0;stroke-dasharray:none"
           x="37.670101"
           y="102.37392">U</tspan></text>
      <text
         xml:space="preserve"
         style="font-style:normal;font-variant:normal;font-weight:normal;font-stretch:normal;font-size:98.224px;font-family:Ubuntu;-inkscape-font-specification:'Ubuntu, Normal';font-variant-ligatures:normal;font-variant-caps:normal;font-variant-numeric:normal;font-variant-east-asian:normal;letter-spacing:0px;word-spacing:0px;opacity:1;fill:#000000;fill-opacity:1;stroke:#ffffff;stroke-width:6.96075;stroke-linecap:round;stroke-linejoin:round;stroke-miterlimit:4.2;stroke-dasharray:none;stroke-opacity:1;paint-order:stroke fill markers"
         x="4.1771011"
         y="74.621689"
         id="text1"
         transform="scale(0.99018165,1.0099157)"><tspan
           sodipodi:role="line"
           id="tspan1"
           style="font-style:normal;font-variant:normal;font-weight:normal;font-stretch:normal;font-size:98.224px;font-family:Ubuntu;-inkscape-font-specification:'Ubuntu, Normal';font-variant-ligatures:normal;font-variant-caps:normal;font-variant-numeric:normal;font-variant-east-asian:normal;fill:#000000;fill-opacity:1;stroke:#ffffff;stroke-width:6.96075;stroke-dasharray:none;stroke-opacity:1"
           x="4.1771011"
           y="74.621689">O</tspan></text>
    </g>
    <g
       id="g4"
       inkscape:label="g4"
       transform="translate(-0.14028372,-2.0368678)"
       style="display:inline">
      <path
         id="text3"
         style="-inkscape-font-specification:'Ubuntu, Normal';opacity:0.958926;fill:#245470;fill-opacity:1;stroke-width:0;stroke-linecap:round;stroke-linejoin:round;stroke-miterlimit:4.2;stroke-opacity:0.3;paint-order:stroke fill markers"
         d="m 45.626094,34.304758 v 29.736385 c 1.693703,-0.246394 3.225817,-0.692155 4.626019,-1.322209 1.902511,-0.910814 3.505592,-2.107197 4.902098,-3.604348 V 34.304758 Z m 42.138314,0 v 41.647006 c 0,3.405095 -0.393155,6.351627 -1.178946,8.839966 -0.785792,2.422856 -1.898947,4.420314 -3.339564,5.991896 -1.440617,1.571583 -3.175876,2.749991 -5.205837,3.535782 -1.964478,0.720309 -4.158157,1.08069 -6.581013,1.08069 -4.845712,0 -8.77465,-1.53879 -11.78685,-4.616472 -2.78355,-2.844062 -4.2639,-7.302719 -4.475193,-13.334144 -3.033714,1.076867 -6.208805,1.743877 -9.497847,1.999687 0.166089,2.89073 0.629716,5.622771 1.400227,8.191142 1.047721,3.27413 2.619296,6.122888 4.71474,8.545744 2.095443,2.357374 4.780695,4.223275 8.054825,5.598405 3.27413,1.37514 7.137281,2.06263 11.590098,2.06263 4.452817,0 8.283857,-0.68749 11.492505,-2.06263 3.27413,-1.37513 5.95886,-3.241031 8.054303,-5.598405 2.160926,-2.422856 3.732501,-5.271614 4.71474,-8.545744 1.047722,-3.27413 1.571406,-6.810378 1.571406,-10.608368 V 34.304758 Z M 55.154211,67.975532 c -0.629072,0.374636 -1.273672,0.727917 -1.941425,1.045895 a 3.4807231,3.4807231 0 0 1 -0.06054,0.02917 c -2.329002,1.053597 -4.853902,1.707638 -7.526153,1.99764 v 1.427617 c 2.837398,-0.259854 5.516504,-0.886786 8.069438,-1.881998 a 3.4807231,3.4807231 0 0 1 0.01722,-0.0077 c 0.490973,-0.188207 0.969815,-0.392011 1.441456,-0.604307 z"
         transform="scale(0.99018165,1.0099157)" />
      <path
         style="color:#000000;-inkscape-font-specification:'Ubuntu, Normal';fill:#245470;fill-opacity:1;stroke-linecap:round;stroke-linejoin:round;stroke-miterlimit:4.2;-inkscape-stroke:none;paint-order:stroke fill markers"
         d="m 9.8740931,40.537961 q 0,-8.741936 2.5538239,-15.421168 2.652048,-6.679232 7.072128,-11.099312 4.518304,-4.5183035 10.411744,-6.7774555 5.991664,-2.259152 12.670896,-2.259152 6.581008,0 12.376224,2.259152 5.89344,2.259152 10.31352,6.7774555 4.420079,4.42008 6.973903,11.099312 2.652048,6.679232 2.652048,15.421168 0,8.741936 -2.652048,15.421168 -2.553824,6.679232 -6.973903,11.197536 -4.42008,4.42008 -10.31352,6.679232 -5.795216,2.259152 -12.376224,2.259152 -6.679232,0 -12.670896,-2.259152 Q 24.018349,71.576745 19.500045,67.156665 15.079965,62.638361 12.427917,55.959129 9.8740931,49.279897 9.8740931,40.537961 Z m 10.0188479,0 q 0,6.188112 1.571584,11.29576 1.571584,5.009424 4.42008,8.545488 2.94672,3.536064 7.072128,5.500544 4.223632,1.866256 9.429504,1.866256 5.205872,0 9.33128,-1.866256 4.125408,-1.96448 6.973904,-5.500544 2.94672,-3.536064 4.518304,-8.545488 1.571584,-5.107648 1.571584,-11.29576 0,-6.188112 -1.571584,-11.197536 -1.571584,-5.107648 -4.518304,-8.643712 -2.848496,-3.536064 -6.973904,-5.40232 -4.125408,-1.96448 -9.33128,-1.96448 -5.205872,0 -9.429504,1.96448 -4.125408,1.866256 -7.072128,5.40232 -2.848496,3.536064 -4.42008,8.643712 -1.571584,5.009424 -1.571584,11.197536 z"
         id="path6"
         transform="scale(0.99018164,1.0099157)" />
    </g>
  </g>
</svg>
